# xmcd
#
# Track frame offsets: 
#        183
#        21090
#        23898
#        26005
#        39113
#        44875
#        57163
#        86488
#        94295
#        106800
#        110673
#        118398
#        123568
#        142610
#        144150
#        151358
#        159205
#        164228
#        171850
#        176218
#        187085
#        193833
#        204970
#        216688
#        221740
#        224360
#        227130
#        236120
#        249610
#        259440
#        273078
#
# Disc length: 4008 seconds
#
# Revision: 5
# Processed by: cddbd v1.5.2PL0 Copyright (c) Steve Scherf et al.
# Submitted via: ExactAudioCopy v1.3
#
DISCID=d90fa61f
DTITLE=Wilfried Jochens, Peter Lika, Angela Kazimierczuk, Alison Brown
DTITLE=er, Markus Schäfer, Franz-Josef Selig - Bach - Matthäus-Passion
DTITLE=(Ver. 1841 by F. Mendelssohn-Bartholdy) [CD2]
DYEAR=1992
DGENRE=Passion
TTITLE0=Christoph Spering - Eine Stimme (Alt) und Chor: “Ach, nun ist 
TTITLE0=mein Jesus hin”
TTITLE1=Christoph Spering - Evangelium: “Die aber Jesum gegriffen hatt
TTITLE1=en”
TTITLE2=Christoph Spering - Evangelium: “Und der Hohepriester antworte
TTITLE2=te”
TTITLE3=Christoph Spering - Evangelium: “Petrus aber saß draußen im Pa
TTITLE3=last”
TTITLE4=Christoph Spering - Choral: “Wer hat dich so geschlagen”
TTITLE5=Christoph Spering - Evangelium: “Da hub er an, sich zu verfluc
TTITLE5=hen”
TTITLE6=Christoph Spering - Eine Stimme (Sopran): “Erbarme dich”
TTITLE7=Christoph Spering - Evangelium: “Des Morgens aber hielten alle
TTITLE7=Hohenpriester”
TTITLE8=Christoph Spering - Eine Stimme (Bass): “Gebt mir meinen Jesum
TTITLE8=wieder”
TTITLE9=Christoph Spering - Evangelium: “Sie hielten aber einen Rat”
TTITLE10=Christoph Spering - Evangelium: “Auf das Fest aber hatte der 
TTITLE10=Landpfleger Gewohnheit”
TTITLE11=Christoph Spering - Eine Stimme (Sopran): “Er hat uns allen w
TTITLE11=ohlgetan”
TTITLE12=Christoph Spering - Eine Stimme (Sopran): “Aus Liebe will mei
TTITLE12=n Heiland sterben”
TTITLE13=Christoph Spering - Evangelium: “Sie schrieen aber noch mehr”
TTITLE14=Christoph Spering - Evangelium: “Da gab er ihnen Barrabam los
TTITLE14=”
TTITLE15=Christoph Spering - Eine Stimme (Alt): “Erbarm es Gott”
TTITLE16=Christoph Spering - Evangelium: “Da nahmen die Kriegsknechte 
TTITLE16=Jesum zu sich”
TTITLE17=Christoph Spering - Choral: “O Haupt voll Blut und Wunden”
TTITLE18=Christoph Spering - Evangelium: “Und da sie ihn verspottet ha
TTITLE18=tten”
TTITLE19=Christoph Spering - Evangelium: “Da sie ihn aber gekreuziget 
TTITLE19=hatten”
TTITLE20=Christoph Spering - Eine Stimme (Alt): “Ach Golgatha, unse'ge
TTITLE20=s Golgatha”
TTITLE21=Christoph Spering - Evangelium: “Und von der sechsten Stunde 
TTITLE21=an”
TTITLE22=Christoph Spering - Choral: “Wenn ich einmal soll scheiden”
TTITLE23=Christoph Spering - Evangelium: “Und siehe da, der Vorhang im
TTITLE23=Tempel zerriß”
TTITLE24=Christoph Spering - Evangelium: “Wahrlich, dieser ist Gottes 
TTITLE24=Sohn gewesen”
TTITLE25=Christoph Spering - Evangelium: “Am Abend aber kam ein reiche
TTITLE25=r Mann”
TTITLE26=Christoph Spering - Eine Stimme (Bass): “Am Abend, da es kühl
TTITLE26=e war”
TTITLE27=Christoph Spering - Eine Stimme (Bass): “Mache dich, mein Her
TTITLE27=ze rein”
TTITLE28=Christoph Spering - Evangelium: “Und Joseph nahm den Leib”
TTITLE29=Christoph Spering - Vier Stimmen (Sopran, Alt, Tenor, Bass) u
TTITLE29=nd Chor: “Nun ist der Herr zur Ruh gebracht”
TTITLE30=Christoph Spering - Schlusschor: “Wir setzen uns mit Tränen n
TTITLE30=ieder”
EXTD=YEAR: 1992
EXTT0=
EXTT1=
EXTT2=
EXTT3=
EXTT4=
EXTT5=
EXTT6=
EXTT7=
EXTT8=
EXTT9=
EXTT10=
EXTT11=
EXTT12=
EXTT13=
EXTT14=
EXTT15=
EXTT16=
EXTT17=
EXTT18=
EXTT19=
EXTT20=
EXTT21=
EXTT22=
EXTT23=
EXTT24=
EXTT25=
EXTT26=
EXTT27=
EXTT28=
EXTT29=
EXTT30=
PLAYORDER=
